<?xml version="1.0" encoding="UTF-8"?>
<svg version="1.1" xmlns="http://www.w3.org/2000/svg" width="6000" height="3780">
<path d="M0 0 C150.15 0 300.3 0 455 0 C471.14010574 47.26745252 471.14010574 47.26745252 478.4208214 69.12991313 C479.56056996 72.55115452 480.70211726 75.97179586 481.84339207 79.39252836 C483.83396955 85.3596333 485.82348677 91.32709084 487.81224106 97.29480366 C490.78929213 106.22811124 493.76809696 115.1608334 496.74719735 124.09345775 C501.82844469 139.32939256 506.90829523 154.56579274 511.98734665 169.80245972 C517.12483458 185.21441878 522.26297218 200.62616102 527.40187836 216.03764725 C527.72798846 217.01564741 528.05409856 217.99364757 528.39009078 219.00128411 C529.71853776 222.98527486 531.04698848 226.96926436 532.37544418 230.9532522 C548.04063698 277.93259546 563.70289212 324.91291788 579.36464536 371.89340788 C587.16219108 395.28365708 594.96013165 418.67377462 602.75814446 442.06386809 C627.78375701 517.12805292 652.80881053 592.19242409 677.83164674 667.25753447 C679.02541508 670.83867725 680.21918442 674.4198197 681.41295406 678.00096205 C683.80693291 685.18256481 686.20091077 692.36416789 688.59488857 699.545771 C691.39744224 707.95304513 694.19999673 716.36031899 697.00255271 724.76759236 C697.80465366 727.1737828 698.60675431 729.57997334 699.40885467 731.98616398 C725.2113959 809.39023249 751.01740295 886.79314481 776.82585964 964.19524116 C795.39020788 1019.87155154 813.95417926 1075.54798737 832.51486397 1131.22551918 C832.89623287 1132.36953239 833.27760177 1133.5135456 833.6705273 1134.69222588 C842.04046718 1159.80002694 850.41014841 1184.90791421 858.77958879 1210.01588177 C861.77368947 1218.99804764 864.76781199 1227.98020622 867.76194625 1236.96236089 C868.50679457 1239.19684429 869.25164192 1241.43132803 869.9964883 1243.66581208 C881.87505152 1279.30058116 893.75633124 1314.93444377 905.63898629 1350.56784858 C917.59346145 1386.41668403 929.54508428 1422.26646907 941.4927546 1458.11757305 C943.1410547 1463.0635888 944.78938624 1468.00959408 946.43773651 1472.95559311 C946.76086789 1473.92517723 947.08399928 1474.89476135 947.41692252 1475.8937268 C952.54636432 1491.28479251 957.67883851 1506.67484523 962.81255811 1522.06448453 C967.85236572 1537.17280657 972.88899564 1552.28218472 977.92217825 1567.39271514 C980.87781836 1576.26576128 983.83595392 1585.13796625 986.79768433 1594.00898141 C988.75972836 1599.88653052 990.71855746 1605.76514433 992.67467991 1611.64466686 C993.78654367 1614.9862892 994.89985283 1618.32741129 996.01709872 1621.66723842 C997.21288383 1625.24430585 998.40321281 1628.82314144 999.59208572 1632.402511 C999.94247308 1633.44626458 1000.29286044 1634.49001817 1000.6538656 1635.56540065 C1000.96669511 1636.51105347 1001.27952462 1637.4567063 1001.60183381 1638.43101528 C1001.87398229 1639.24736066 1002.14613076 1640.06370604 1002.42652616 1640.90478915 C1003 1643 1003 1643 1003 1646 C868.36 1646 733.72 1646 595 1646 C579.04034217 1596.98105094 579.04034217 1596.98105094 574.53231812 1582.72360229 C573.11025646 1578.22720254 571.68158782 1573.73289909 570.25390625 1569.23828125 C569.9746077 1568.35862198 569.69530914 1567.47896271 569.407547 1566.57264709 C563.53591444 1548.08616453 557.56523443 1529.63601563 551.38671875 1511.24951172 C548.53723822 1502.72224196 545.84417084 1494.15109784 543.1875 1485.5625 C539.62062646 1474.03429607 535.90066373 1462.56570705 532.0625 1451.125 C528.15848989 1439.48356316 524.28169399 1427.83452387 520.49069214 1416.15570068 C519.99969017 1414.64383297 519.50761654 1413.13231285 519.01443481 1411.62115479 C518.33474627 1409.53745888 517.65894296 1407.45254586 516.984375 1405.3671875 C516.59991211 1404.18237793 516.21544922 1402.99756836 515.81933594 1401.77685547 C515 1399 515 1399 515 1397 C368.15 1397 221.3 1397 70 1397 C72.43689763 1387.25240949 74.89990007 1377.65510041 77.8125 1368.0625 C80.33064335 1359.66656235 82.79187396 1351.26168673 85.125 1342.8125 C88.49452487 1330.65543013 92.02483187 1318.54649465 95.5625 1306.4375 C95.86577209 1305.39933136 96.16904419 1304.36116272 96.48150635 1303.29153442 C98.35334267 1296.88520136 100.22689029 1290.47936961 102.10089111 1284.07366943 C104.56989062 1275.6332142 107.03600864 1267.19191853 109.5 1258.75 C109.77356323 1257.81285156 110.04712646 1256.87570312 110.32897949 1255.91015625 C117.29055651 1232.05452272 124.19243548 1208.18156285 131.09765625 1184.30957031 C131.99868745 1181.19465843 132.89972845 1178.07974938 133.80078125 1174.96484375 C134.02047703 1174.2053455 134.24017281 1173.44584724 134.46652603 1172.66333389 C138.62656066 1158.2826922 142.79819652 1143.90543811 146.97470093 1129.52957153 C148.39060091 1124.6553642 149.80570553 1119.78092609 151.22077942 1114.90647888 C156.14692759 1097.9375775 161.07356863 1080.96881915 166 1064 C245.86 1064 325.72 1064 408 1064 C402.94698755 1047.57770955 397.86548531 1031.17437777 392.625 1014.8125 C391.96843355 1012.7591377 391.31194057 1010.70575191 390.65551758 1008.65234375 C385.46590726 992.42553964 380.24339397 976.20950113 375 960 C368.31327458 939.32223234 361.67405314 918.62960995 355.06005859 897.9284668 C347.11342785 873.06391321 339.07540286 848.22882135 331.046875 823.390625 C330.82686703 822.70997608 330.60685905 822.02932716 330.38018417 821.32805252 C329.26240369 817.8700176 328.14449156 814.41202531 327.02636719 810.95410156 C321.63624763 794.28406542 316.26273461 777.60896124 310.93261719 760.9196167 C309.39543524 756.10737204 307.85580898 751.2959096 306.31640625 746.484375 C305.70133335 744.56160523 305.08626175 742.63883504 304.47119141 740.71606445 C298.02920716 720.57938011 291.58139334 700.44456925 285.125 680.3125 C284.76346832 679.18513428 284.40193665 678.05776855 284.02944946 676.89624023 C279.94989795 664.17640311 275.86084736 651.45975467 271.75 638.75 C267.95476546 627.01420338 264.22208527 615.25915673 260.5 603.5 C256.56677833 591.07520044 252.62242383 578.6543112 248.625 566.25 C248.07295898 564.53393555 248.07295898 564.53393555 247.50976562 562.78320312 C245.56831867 556.77198502 243.59308596 550.77373588 241.58604431 544.78416443 C237.28913212 531.95712781 233.16105253 519.07909252 229.0625 506.1875 C228.37187368 504.01883916 227.68111906 501.85021917 226.99023438 499.68164062 C225.32535138 494.45489464 223.6620232 489.22765602 222 484 C210.19547281 520.24996225 198.53354454 556.54590023 187.09289551 592.91241455 C181.89594798 609.42221339 176.53338282 625.8772368 171.16973877 642.33346558 C165.45030472 659.8887659 159.89371464 677.4952384 154.34347534 695.10455322 C150.542854 707.15982303 146.69088273 719.19693817 142.79394531 731.22143555 C139.70048606 740.78387852 136.67117616 750.36565981 133.65625 759.953125 C129.89571714 771.91161949 126.0920531 783.84689932 122.07983398 795.72387695 C118.91241334 805.15295072 115.92507072 814.6377892 112.9375 824.125 C112.67452118 824.96001038 112.41154236 825.79502075 112.14059448 826.65533447 C110.86710187 830.70023425 109.59477621 834.74549976 108.32324219 838.79101562 C102.978228 855.79573308 97.49435898 872.75383809 91.96899414 889.70068359 C85.21909537 910.41338766 78.61714841 931.17040924 72.13018799 951.96688843 C67.04664389 968.25450939 61.90867388 984.51208239 56.44580078 1000.67675781 C53.05757871 1010.73129609 49.88881896 1020.84676967 46.74633789 1030.97998047 C43.91302168 1040.1112219 41.01256971 1049.21834056 38.0625 1058.3125 C34.4812374 1069.35643004 30.96926171 1080.42038717 27.5 1091.5 C21.77060588 1109.78935349 15.89120872 1128.02855586 9.96720886 1146.25569153 C8.76940356 1149.94116369 7.57205379 1153.62678368 6.375 1157.3125 C6.12783234 1158.07343964 5.88066467 1158.83437927 5.62600708 1159.61837769 C0.876491 1174.24618587 -3.81186725 1188.89328378 -8.49224854 1203.54333496 C-15.08403692 1224.17316893 -21.72708861 1244.78628185 -28.38388062 1265.39521027 C-36.19397576 1289.57477972 -43.93683499 1313.77481081 -51.61611938 1337.99623966 C-58.55435152 1359.87984861 -65.50441093 1381.759647 -72.5 1403.625 C-72.8279657 1404.65022766 -73.1559314 1405.67545532 -73.49383545 1406.73175049 C-76.69613435 1416.73821465 -79.90774989 1426.7414359 -83.1640625 1436.73046875 C-83.41296234 1437.49407211 -83.66186218 1438.25767548 -83.91830444 1439.04441833 C-85.86962837 1445.02972383 -85.86962837 1445.02972383 -86.84393311 1448.01620483 C-91.0597972 1460.95250817 -95.10503884 1473.93916198 -99.125 1486.9375 C-102.94575984 1499.29135445 -106.80134312 1511.62241468 -110.9375 1523.875 C-115.12259821 1536.27413426 -119.14868055 1548.71990657 -123.125 1561.1875 C-123.43787964 1562.16775146 -123.75075928 1563.14800293 -124.07312012 1564.15795898 C-127.88431972 1576.10645286 -131.65212876 1588.06787548 -135.37890625 1600.04296875 C-135.92118866 1601.78265175 -135.92118866 1601.78265175 -136.47442627 1603.55747986 C-138.23019053 1609.190125 -139.98082726 1614.82424697 -141.72119141 1620.46166992 C-142.35947105 1622.51358051 -142.99796911 1624.56542317 -143.63671875 1626.6171875 C-143.91842422 1627.53706955 -144.2001297 1628.4569516 -144.4903717 1629.40470886 C-144.89865456 1630.71040581 -144.89865456 1630.71040581 -145.31518555 1632.04248047 C-145.66035469 1633.15887405 -145.66035469 1633.15887405 -146.01249695 1634.29782104 C-147.46793402 1638.28044309 -149.2778783 1642.12522616 -151 1646 C-282.01 1646 -413.02 1646 -548 1646 C-545.09103398 1636.10951552 -542.20059425 1626.29350643 -538.90429688 1616.53710938 C-538.66573975 1615.82965576 -538.42718262 1615.12220215 -538.18139648 1614.39331055 C-537.93591064 1613.66539307 -537.6904248 1612.93747559 -537.4375 1612.1875 C-536.91307964 1610.62446025 -536.38899942 1609.06130634 -535.86523438 1607.49804688 C-534.78238742 1604.26697722 -533.6981147 1601.03639151 -532.61279297 1597.80615234 C-530.31102502 1590.95166474 -528.02727819 1584.09118025 -525.74295044 1577.23086548 C-524.49611294 1573.48697278 -523.24798853 1569.74350914 -522 1566 C-521.4999939 1564.50000203 -520.9999939 1563.00000203 -520.5 1561.5 C-495.75 1487.25 -471 1413 -312.74998474 938.24996948 C-312.2500234 936.75007528 -311.75007426 935.250177 -311.25013733 933.75027466 C-309.99964599 929.99862254 -308.74894218 926.24704151 -307.49780273 922.49560547 C-305.25342785 915.76535385 -303.01048367 909.03464557 -300.77563477 902.30122375 C-299.538989 898.57546142 -298.30107874 894.85012016 -297.0625 891.125 C-296.81594666 890.3833963 -296.56939331 889.6417926 -296.31536865 888.87771606 C-292.74977689 878.16134005 -289.11203796 867.47141768 -285.43572998 856.79257202 C-285.16818909 856.01539825 -284.90064819 855.23822449 -284.625 854.4375 C-284.35713684 853.65944 -284.08927368 852.88138 -283.81329346 852.07974243 C-279.07172757 838.28998727 -274.53463995 824.4388392 -270.04891968 810.56402588 C-266.12678392 798.43870299 -262.1078461 786.35467055 -257.9375 774.3125 C-253.65363645 761.93906918 -249.52745551 749.52175507 -245.5 737.0625 C-241.37884787 724.3179337 -237.23609821 711.58189762 -233 698.875 C-232.75521912 698.14057678 -232.51043823 697.40615356 -232.25823975 696.6494751 C-228.18242139 684.43407174 -224.0043705 672.25478279 -219.8130188 660.0786438 C-215.07151482 646.28926258 -210.53452508 632.43848388 -206.04891968 618.56402588 C-202.12678392 606.43870299 -198.1078461 594.35467055 -193.9375 582.3125 C-189.65363989 569.9390791 -185.52702393 557.52188877 -181.5 545.0625 C-177.36620727 532.27331019 -173.1979334 519.49762295 -168.9375 506.75 C-168.69177246 506.01468048 -168.44604492 505.27936096 -168.19287109 504.52175903 C-166.95746827 500.82604498 -165.72093575 497.13071018 -164.48388672 493.43554688 C-162.23313055 486.71052994 -159.99252355 479.98212919 -157.75100708 473.25402832 C-156.50107352 469.5025515 -155.25050511 465.75128633 -154 462 C-153.49999695 460.50000102 -152.99999695 459.00000102 -152.5 457.5 C-127.75 383.25 -103 309 -76.75 230.25001526 C-76.24998779 228.74996847 -75.74998779 227.2499176 -75.25 225.74986267 C-74.00028682 222.00054516 -72.75036182 218.25129852 -71.5 214.50219727 C-69.24634311 207.74411519 -66.99420046 200.98554864 -64.75 194.22431946 C-63.50105217 190.46169642 -62.25085751 186.69948858 -61 182.9375 C-60.7525 182.19305634 -60.505 181.44861267 -60.25 180.68161011 C-56.32688631 168.89071874 -52.30479761 157.13600488 -48.25 145.38986206 C-44.10289141 133.36179594 -40.14415933 121.27931296 -36.25 109.16726685 C-32.62486455 97.89993404 -28.87098315 86.6851546 -25 75.5 C-20.25687324 61.79271147 -15.70899115 48.02990137 -11.27148438 34.22070312 C-7.59421094 22.78433087 -3.79969381 11.39908142 0 0 Z " fill="#000000" transform="translate(2125,891)"/>
<path d="M0 0 C1.30945623 0.00361756 1.30945623 0.00361756 2.64536613 0.00730819 C3.56916311 0.00592777 4.49296009 0.00454735 5.44475092 0.0031251 C8.58984388 -0.00032411 11.7348889 0.00345199 14.8799811 0.00710286 C17.15088682 0.00611289 19.42179239 0.00468418 21.69269759 0.00285342 C28.00408554 -0.00093732 34.31545829 0.00158876 40.62684587 0.00504337 C46.78414567 0.0079243 52.94144425 0.00512067 59.09874391 0.00293275 C71.9085293 -0.00144866 84.71831068 -0.00103909 97.52809631 0.00189006 C110.59122582 0.00485718 123.65435277 0.00563833 136.71748251 0.00376585 C137.95715713 0.00359022 137.95715713 0.00359022 139.22187568 0.00341103 C143.44119366 0.00280357 147.66051163 0.00216133 151.87982961 0.00150742 C182.74918 -0.00320002 213.61852885 -0.00294343 244.48787939 -0.0002117 C275.79203635 0.00254361 307.09619224 0.00313191 338.40034926 0.00105096 C339.87927449 0.00095419 339.87927449 0.00095419 341.38807699 0.00085547 C350.42320072 0.00026396 359.45832445 -0.00034994 368.49344818 -0.00099074 C391.15353061 -0.00259528 413.81361305 -0.00385111 436.47369551 -0.00487112 C438.03153346 -0.00494147 438.03153346 -0.00494147 439.62084288 -0.00501324 C490.86301636 -0.0072941 542.10518965 -0.00575495 593.34736311 -0.00384329 C595.59309959 -0.00375966 597.83883607 -0.00367602 600.08457255 -0.0035924 C601.19756031 -0.00355094 602.31054806 -0.00350949 603.45726272 -0.00346677 C618.1337855 -0.00292028 632.81030828 -0.00238368 647.48683107 -0.00187348 C649.16950697 -0.00181474 649.16950697 -0.00181474 650.88617632 -0.00175481 C702.82197657 0.00004477 754.75777673 -0.00038147 806.69357699 -0.00130393 C812.35579941 -0.00140373 818.01802183 -0.00149923 823.68024425 -0.00159521 C840.74600932 -0.00188579 857.81177438 -0.00218273 874.87753945 -0.00249281 C926.92133498 -0.00343744 978.9651305 -0.00403761 1031.00892603 -0.00434111 C1032.16782425 -0.00434798 1033.32672247 -0.00435485 1034.52073882 -0.00436192 C1109.59825459 -0.00480081 1184.67577026 -0.00369918 1259.753286 -0.00149153 C1260.95222785 -0.00145641 1262.1511697 -0.0014213 1263.38644313 -0.00138511 C1303.54765378 -0.00020869 1343.70886442 0.00104734 1383.87007507 0.00231152 C1505.32577392 0.00613205 1626.78147238 0.00822567 1843.68110881 0.00219619 C1883.83083417 0.00093302 1923.98055954 -0.00031547 1964.1302849 -0.00149153 C1965.32885165 -0.00152678 1966.5274184 -0.00156202 1967.76230535 -0.00159833 C2042.79880201 -0.00380296 2117.8352986 -0.00478583 2192.8717953 -0.00434111 C2194.03032013 -0.00433435 2195.18884496 -0.0043276 2196.38247661 -0.00432064 C2248.39778162 -0.00401394 2300.41308663 -0.0033757 2352.42839163 -0.00243061 C2369.48702842 -0.00212105 2386.5456652 -0.00182671 2403.60430199 -0.00153756 C2409.26335917 -0.00144157 2414.92241634 -0.00134421 2420.58147352 -0.0012437 C2472.51976836 -0.00032403 2524.45806307 -0.00006027 2576.39635789 -0.00187348 C2577.51739456 -0.00191245 2578.63843124 -0.00195142 2579.79343872 -0.00199158 C2594.46125831 -0.0025034 2609.1290779 -0.00304604 2623.79689749 -0.0035924 C2624.90897087 -0.00363381 2626.02104424 -0.00367522 2627.16681681 -0.00371789 C2629.41044056 -0.00380145 2631.6540643 -0.00388508 2633.89768805 -0.00396879 C2685.06729071 -0.00587283 2736.23689314 -0.00718183 2787.40649581 -0.00487112 C2788.96236261 -0.00480108 2788.96236261 -0.00480108 2790.54966106 -0.00472964 C2813.1734412 -0.00369973 2835.79722132 -0.00238029 2858.42100143 -0.00077583 C2867.442589 -0.0001399 2876.46417657 0.00046069 2885.48576414 0.00105096 C2886.4698951 0.00111638 2887.45402605 0.0011818 2888.46797915 0.00124919 C2919.73471792 0.00331109 2951.00145559 0.00230133 2982.26819428 -0.00046581 C3013.03105006 -0.00317482 3043.7939041 -0.00286428 3074.55675968 0.00190256 C3078.76162171 0.00255377 3082.96648374 0.0031702 3087.17134578 0.00376585 C3087.99459345 0.00388384 3088.81784112 0.00400183 3089.66603568 0.00412339 C3102.69208638 0.00589909 3115.71813444 0.00432378 3128.74418482 0.0013445 C3141.4616571 -0.00149632 3154.17912504 -0.00083608 3166.89659688 0.0036813 C3173.67814796 0.00599253 3180.4596884 0.00657877 3187.24123919 0.00286479 C3193.37879448 -0.00046782 3199.51633088 0.00069548 3205.65388494 0.00563949 C3207.86965492 0.00660501 3210.08542641 0.00585558 3212.30119511 0.00328049 C3215.28315523 0.00005111 3218.26504749 0.00285893 3221.2470045 0.00730819 C3222.11756362 0.00489649 3222.98812274 0.00248479 3223.88506244 0 C3229.7804402 0.01829351 3229.7804402 0.01829351 3232.00875723 1.13245203 C3232.00875723 130.82245203 3232.00875723 260.51245203 3232.00875723 394.13245203 C2163.13875723 394.13245203 1094.26875723 394.13245203 -6.99124277 394.13245203 C-6.99124277 0.02176153 -6.99124277 0.02176153 0 0 Z " fill="#FE322D" transform="translate(1386.9912427680101,3384.8675479739904)"/>
<path d="M0 0 C1.43073051 0.00308298 1.43073051 0.00308298 2.89036468 0.00622824 C3.89811398 0.0044752 4.90586329 0.00272216 5.94415045 0.000916 C9.36667341 -0.00378574 12.78915466 -0.00126779 16.21167949 0.00114992 C18.67256384 -0.00071605 21.13344789 -0.00301588 23.59433147 -0.0057154 C28.9692654 -0.01057914 34.3441869 -0.01228386 39.71912196 -0.01125929 C47.71389197 -0.00973906 55.70865195 -0.01388618 63.70342002 -0.01913391 C78.82349749 -0.02883029 93.94357159 -0.0316192 109.06365181 -0.03219097 C120.7613835 -0.0326504 132.45911386 -0.0347082 144.15684512 -0.0378916 C147.52383988 -0.03878921 150.89083464 -0.03967901 154.2578294 -0.04056647 C155.09496128 -0.04078752 155.93209317 -0.04100857 156.79459269 -0.04123632 C180.36812473 -0.04739716 203.94165632 -0.05133632 227.5151892 -0.05089304 C228.40506117 -0.05087746 229.29493313 -0.05086188 230.21177091 -0.05084583 C234.72186551 -0.05076272 239.23196011 -0.05066368 243.74205471 -0.05056112 C244.63773524 -0.05054118 245.53341578 -0.05052123 246.45623815 -0.05050068 C248.26753942 -0.05046024 250.07884069 -0.05041845 251.89014196 -0.05037529 C279.97219512 -0.04976468 308.05423613 -0.05722667 336.13628581 -0.07094786 C367.71159266 -0.08636962 399.28689153 -0.09491009 430.86220238 -0.09398463 C434.2427144 -0.09391001 437.62322641 -0.0938613 441.00373843 -0.09383032 C441.83604821 -0.09381866 442.66835799 -0.09380701 443.52588927 -0.093795 C456.82957013 -0.09376443 470.13324033 -0.10010851 483.43691804 -0.10876258 C496.86772911 -0.11731697 510.29852491 -0.11816938 523.72933722 -0.11165326 C530.98323745 -0.1083222 538.2371029 -0.10799922 545.49099925 -0.11700651 C634.69742343 -0.22234226 722.79091178 6.18662691 911.73809245 61.00302675 C914.37003643 62.09852795 917.00840955 63.17694076 919.64873698 64.25205019 C929.04574177 68.10589885 938.19425784 72.29496748 947.20928386 76.97177675 C949.70791658 78.26450984 952.21541839 79.53918033 954.72295573 80.81455019 C981.75343251 94.64729979 1007.49155188 110.30046177 1031.91436198 128.33798769 C1034.44889487 130.19056426 1034.44889487 130.19056426 1037.28154948 131.74423769 C1037.9995573 132.20314394 1038.71756511 132.66205019 1039.45733073 133.13486269 C1039.45733073 133.79486269 1039.45733073 134.45486269 1039.45733073 135.13486269 C1040.07608073 135.44423769 1040.69483073 135.75361269 1041.33233073 136.07236269 C1042.70733073 136.75986269 1044.08233073 137.44736269 1045.45733073 138.13486269 C1045.45733073 138.79486269 1045.45733073 139.45486269 1045.45733073 140.13486269 C1045.98842448 140.37205019 1046.51951823 140.60923769 1047.06670573 140.85361269 C1050.15475668 142.50864653 1052.91017793 144.54034397 1055.70733073 146.63486269 C1056.26162761 147.03833925 1056.81592448 147.44181582 1057.38701823 147.85751894 C1058.78302238 148.8993644 1060.12535465 150.01231681 1061.45733073 151.13486269 C1061.45733073 151.79486269 1061.45733073 152.45486269 1061.45733073 153.13486269 C1061.99358073 153.36173769 1062.52983073 153.58861269 1063.08233073 153.82236269 C1066.28193235 155.59056358 1068.74770296 157.67156472 1071.45733073 160.13486269 C1071.45733073 160.79486269 1071.45733073 161.45486269 1071.45733073 162.13486269 C1072.0361198 162.38622988 1072.61490886 162.63759707 1073.21123698 162.89658144 C1075.7401675 164.29079183 1077.39163534 165.87276627 1079.39483073 167.94736269 C1080.09092448 168.66021425 1080.78701823 169.37306582 1081.50420573 170.10751894 C1082.14873698 170.77654238 1082.79326823 171.44556582 1083.45733073 172.13486269 C1085.84732347 174.58043666 1088.1151441 176.87372026 1090.83233073 178.94736269 C1093.84956357 181.46172339 1096.26809258 184.25181656 1098.80889323 187.23642519 C1100.52908491 189.27071183 1100.52908491 189.27071183 1102.89483073 191.50986269 C1104.45733073 193.13486269 1104.45733073 193.13486269 1104.45733073 195.13486269 C1105.11733073 195.13486269 1105.77733073 195.13486269 1106.45733073 195.13486269 C1106.45733073 195.79486269 1106.45733073 196.45486269 1106.45733073 197.13486269 C1107.11733073 197.13486269 1107.77733073 197.13486269 1108.45733073 197.13486269 C1109.89545747 198.7042707 1111.25763123 200.34360304 1112.58233073 202.00986269 C1113.38670573 203.01533144 1114.19108073 204.02080019 1115.01983073 205.05673769 C1115.82420573 206.07251894 1116.62858073 207.08830019 1117.45733073 208.13486269 C1118.8321811 209.84331645 1120.20717172 211.55165736 1121.58233073 213.25986269 C1122.87464971 214.88434397 1124.1663212 216.50934057 1125.45733073 218.13486269 C1126.13537761 218.97790957 1126.81342448 219.82095644 1127.51201823 220.68955019 C1128.15397136 221.49650332 1128.79592448 222.30345644 1129.45733073 223.13486269 C1130.03483073 223.85673769 1130.61233073 224.57861269 1131.20733073 225.32236269 C1132.45733073 227.13486269 1132.45733073 227.13486269 1132.45733073 229.13486269 C1133.11733073 229.13486269 1133.77733073 229.13486269 1134.45733073 229.13486269 C1138.45733073 234.5466274 1138.45733073 234.5466274 1138.45733073 237.13486269 C1139.11733073 237.13486269 1139.77733073 237.13486269 1140.45733073 237.13486269 C1141.71904948 238.97080019 1141.71904948 238.97080019 1143.14483073 241.50986269 C1145.84763237 246.19649409 1148.8288578 250.55675589 1152.03936198 254.90830019 C1153.39896102 257.04320777 1154.02261582 258.66206874 1154.45733073 261.13486269 C1155.11733073 261.13486269 1155.77733073 261.13486269 1156.45733073 261.13486269 C1156.76960612 261.70406435 1157.08188151 262.27326601 1157.4036198 262.85971621 C1158.83756596 265.47260812 1160.27244173 268.08498844 1161.70733073 270.69736269 C1162.19846355 271.5926166 1162.68959636 272.4878705 1163.19561198 273.41025332 C1165.2731879 277.19144148 1167.35058037 280.9705698 1169.50420573 284.70908144 C1211.96553924 359.18626042 1231.58953422 444.91804936 1226.45733073 713.13486269 C1226.17227084 714.52905484 1225.88728065 715.92326125 1225.60235026 717.31747988 C1211.10359332 787.81113371 1184.34226642 856.27858579 1142.45733073 915.13486269 C1141.92494792 915.91861269 1141.39256511 916.70236269 1140.84404948 917.50986269 C1133.10957741 928.87166782 1124.41391152 939.63172827 1115.70733073 950.25986269 C1114.53944011 951.68685488 1114.53944011 951.68685488 1113.34795573 953.14267519 C1112.72404948 953.80009707 1112.10014323 954.45751894 1111.45733073 955.13486269 C1110.79733073 955.13486269 1110.13733073 955.13486269 1109.45733073 955.13486269 C1109.20983073 955.69947207 1108.96233073 956.26408144 1108.70733073 956.84580019 C1104.03935997 965.39402165 1095.33778847 972.35692833 1088.45733073 979.13486269 C1085.98255406 981.60189359 1083.51563731 984.07570006 1081.06279948 986.56455019 C1076.64433424 991.03298193 1072.19065093 995.38233326 1067.41045573 999.46298769 C1066.00869078 1000.66289849 1064.62524202 1001.88433267 1063.25420573 1003.11923769 C1062.53748698 1003.76376894 1061.82076823 1004.40830019 1061.08233073 1005.07236269 C1060.43522136 1005.65888613 1059.78811198 1006.24540957 1059.12139323 1006.84970644 C1057.45733073 1008.13486269 1057.45733073 1008.13486269 1055.45733073 1008.13486269 C1055.45733073 1008.79486269 1055.45733073 1009.45486269 1055.45733073 1010.13486269 C1053.94561198 1011.50986269 1053.94561198 1011.50986269 1051.76983073 1013.13486269 C1050.93967448 1013.76134707 1050.10951823 1014.38783144 1049.25420573 1015.03330019 C1048.33123698 1015.72681582 1047.40826823 1016.42033144 1046.45733073 1017.13486269 C1044.4779157 1018.67621046 1042.4987667 1020.2178999 1040.51983073 1021.75986269 C1029.47770845 1030.26140715 1018.26097456 1038.52846859 1006.45733073 1045.94736269 C1005.78081462 1046.37404238 1005.10429851 1046.80072207 1004.40728191 1047.24033144 C999.71398889 1050.13486269 999.71398889 1050.13486269 997.45733073 1050.13486269 C997.45733073 1050.79486269 997.45733073 1051.45486269 997.45733073 1052.13486269 C996.32037761 1052.76392519 995.18342448 1053.39298769 994.01201823 1054.04111269 C992.45202805 1054.90552578 990.89213994 1055.77012308 989.33233073 1056.63486269 C988.0889091 1057.32370546 988.0889091 1057.32370546 986.82036784 1058.02646425 C982.19014076 1060.59727424 977.59230548 1063.21225992 973.01983073 1065.88486269 C907.25961812 1103.3975613 834.67262628 1126.1753351 661.08501628 1153.90768984 C658.50471051 1154.13076654 655.92538421 1154.36328654 653.34600261 1154.59677675 C624.33482653 1157.16749528 595.40739452 1157.30161393 566.30774501 1157.22069338 C561.12124473 1157.20768829 555.93473632 1157.20215158 550.74822429 1157.19589785 C540.65123909 1157.18266699 530.55428899 1157.16145878 520.45733073 1157.13486269 C520.43446611 1115.11183616 520.4168334 1073.08881034 520.4062654 1031.06577883 C520.40501462 1026.110047 520.40372031 1021.1543152 520.40239909 1016.19858339 C520.40213678 1015.21194283 520.40187447 1014.22530227 520.40160421 1013.2087635 C520.39724714 997.21125072 520.38935939 981.21374151 520.38017794 965.21623085 C520.37084243 948.81409625 520.36527534 932.41196354 520.36324224 916.00982639 C520.3618668 905.88030775 520.35751506 895.75079921 520.34941427 885.62128367 C520.34414808 878.68496564 520.34252615 871.74865286 520.34382936 864.81233297 C520.34447294 860.80419974 520.34345298 856.79608423 520.33812526 852.78795412 C520.33329118 849.12467179 520.33299214 845.46141925 520.33643184 841.7981356 C520.33706047 839.8324459 520.33271881 837.8667566 520.32824942 835.90107188 C520.33024047 834.74956029 520.33223152 833.5980487 520.3342829 832.41164282 C520.33371332 830.90851989 520.33371332 830.90851989 520.33313224 829.37503085 C520.45733073 827.13486269 520.45733073 827.13486269 521.45733073 826.13486269 C524.5102386 825.99813949 527.54331611 825.92352614 530.59795573 825.88876894 C532.54132021 825.85742704 534.48467942 825.82575672 536.42803386 825.79379824 C537.45291911 825.77844027 538.47780437 825.7630823 539.53374675 825.74725893 C598.71329033 824.81681665 658.73780096 818.92999021 712.45733073 792.13486269 C713.59114177 791.57218691 713.59114177 791.57218691 714.74785808 790.99814394 C732.91368062 781.89387025 748.87310409 770.12583451 764.45733073 757.13486269 C765.44539714 756.33435488 765.44539714 756.33435488 766.45342448 755.51767519 C770.96800209 751.79742193 774.68508013 747.59297705 778.45733073 743.13486269 C779.68445463 741.73723315 780.91359092 740.34136768 782.14483073 738.94736269 C826.84349698 687.70742822 838.13269053 618.8201002 834.23027995 552.9107416 C833.06435598 537.09160034 830.19898981 521.5350818 826.45733073 506.13486269 C826.13490398 504.8021332 826.13490398 504.8021332 825.80596355 503.44247988 C817.98351344 471.97728819 803.09281862 443.99855745 782.45733073 419.13486269 C781.43252605 417.84322207 781.43252605 417.84322207 780.38701823 416.52548769 C777.55075276 413.0117337 774.48333338 409.95566481 770.95733073 407.13486269 C768.24559921 404.96547747 765.91410656 402.59163852 763.45733073 400.13486269 C740.15312249 377.33726767 708.25587929 361.78253115 677.45733073 352.13486269 C676.55498698 351.84659609 675.65264323 351.55832949 674.72295573 351.26132753 C583.41480991 322.33341877 480.77560683 333.13486269 388.45733073 333.13486269 C388.12733073 766.09486269 387.79733073 1199.05486269 387.45733073 1645.13486269 C257.10733073 1645.13486269 126.75733073 1645.13486269 -7.54266927 1645.13486269 C-7.56281531 1453.56802265 -7.56281531 1453.56802265 -7.56775093 1400.603627 C-7.56803886 1397.51480942 -7.56832683 1394.42599184 -7.56861551 1391.33717425 C-7.5753551 1319.21663147 -7.5807275 1247.09608865 -7.58501241 1174.97554567 C-7.58515186 1172.63466642 -7.58529131 1170.29378716 -7.58543076 1167.95290791 C-7.58835323 1118.82098219 -7.59106997 1069.68905645 -7.59354894 1020.5571307 C-7.59479437 995.87780946 -7.59607935 971.19848823 -7.59740171 946.51916699 C-7.59760096 942.79630398 -7.59779907 939.07344096 -7.59799715 935.35057794 C-7.60105838 878.00020997 -7.60496955 820.64984221 -7.61133382 763.29947451 C-7.61147072 762.06569073 -7.61160761 760.83190696 -7.61174866 759.5607358 C-7.61396113 739.66754362 -7.6162447 719.77435144 -7.61853771 699.88115927 C-7.6251384 642.60679432 -7.63121632 585.33242954 -7.63380906 528.05806425 C-7.63386259 526.88112286 -7.63391613 525.70418148 -7.63397129 524.4915752 C-7.63513685 498.6594904 -7.6360318 472.82740561 -7.63667025 446.9953208 C-7.63693188 436.60253359 -7.6372325 426.20974638 -7.63754651 415.81695917 C-7.63757994 414.67948939 -7.63761336 413.54201961 -7.6376478 412.37008105 C-7.63874557 375.6754507 -7.64302113 338.98082157 -7.64895147 302.28619171 C-7.65490722 265.34482197 -7.657771 228.4034534 -7.65629325 191.46208317 C-7.65609015 186.36536993 -7.65592278 181.26865669 -7.65577695 176.17194346 C-7.65574707 175.17278042 -7.65571719 174.17361738 -7.6556864 173.14417668 C-7.6553047 157.27785938 -7.65829938 141.41154454 -7.66267913 125.54522791 C-7.66690976 109.97060218 -7.66762 94.39597967 -7.66450108 78.82135363 C-7.66277743 69.67289831 -7.6638387 60.52445318 -7.66888627 51.37599903 C-7.67196049 45.31658805 -7.67147463 39.25718444 -7.66797034 33.19777371 C-7.66608116 29.75230613 -7.66581688 26.30685851 -7.66990451 22.86139239 C-7.67345971 19.17438857 -7.67099082 15.48743928 -7.66686776 11.8004373 C-7.66937664 10.71913379 -7.67188552 9.63783027 -7.67447042 8.52375998 C-7.67094108 7.06876347 -7.67094108 7.06876347 -7.66734043 5.58437309 C-7.66740444 4.74262255 -7.66746844 3.90087201 -7.66753439 3.03361388 C-7.37705248 -1.3835752 -3.56517391 0.01148396 0 0 Z " fill="#000000" transform="translate(3190.5426692664623,890.865137308836)"/>
</svg>
